<svg xmlns="http://www.w3.org/2000/svg" width="198.994" height="33" viewBox="0 0 198.994 33">
  <g id="Group_296" data-name="Group 296" transform="translate(-150.6 -2863.218)">
    <g id="Group_83" data-name="Group 83" transform="translate(150.6 2867.049)">
      <path id="star" d="M11.93,10.441l3.686,7.47,8.244,1.2-5.965,5.814,1.408,8.21L11.93,29.256,4.557,33.133l1.408-8.21L0,19.108l8.243-1.2Z" transform="translate(0 -10.441)" fill="#231f20"/>
      <path id="star-2" data-name="star" d="M11.93,10.441l3.686,7.47,8.244,1.2-5.965,5.814,1.408,8.21L11.93,29.256,4.557,33.133l1.408-8.21L0,19.108l8.243-1.2Z" transform="translate(31.743 -10.441)" fill="#231f20"/>
      <path id="star-3" data-name="star" d="M11.93,10.441l3.686,7.47,8.244,1.2-5.965,5.814,1.408,8.21L11.93,29.256,4.557,33.133l1.408-8.21L0,19.108l8.243-1.2Z" transform="translate(63.663 -10.441)" fill="#231f20"/>
      <path id="star-4" data-name="star" d="M11.93,10.441l3.686,7.47,8.244,1.2-5.965,5.814,1.408,8.21L11.93,29.256,4.557,33.133l1.408-8.21L0,19.108l8.243-1.2Z" transform="translate(95.584 -10.441)" fill="#231f20"/>
      <path id="star-5" data-name="star" d="M11.93,10.441l3.686,7.47,8.244,1.2-5.965,5.814,1.408,8.21L11.93,29.256,4.557,33.133l1.408-8.21L0,19.108l8.243-1.2Z" transform="translate(127.505 -10.441)" fill="#231f20"/>
    </g>
    <text id="_4.5" data-name="4.5" transform="translate(331.594 2890.218)" font-size="25" font-family="SegoeUI-Bold, Segoe UI" font-weight="700"><tspan x="-17.767" y="0">4.5</tspan></text>
  </g>
</svg>
