<svg xmlns="http://www.w3.org/2000/svg" width="16.829" height="18.472" viewBox="0 0 16.829 18.472"><g transform="translate(0.251 0.25)"><path d="M31.017,17.524,29.675,5.013a.41.41,0,0,0-.4-.358H26.787V3.894a3.894,3.894,0,0,0-7.789,0v.761H16.447a.41.41,0,0,0-.4.358L14.7,17.524a.4.4,0,0,0,.09.313.361.361,0,0,0,.291.134H30.637a.361.361,0,0,0,.291-.134A.4.4,0,0,0,31.017,17.524ZM26.385,6.916a.358.358,0,1,1-.358.358A.354.354,0,0,1,26.385,6.916ZM19.8,3.894a3.089,3.089,0,1,1,6.177,0v.761H19.8Zm-.4,3.021a.358.358,0,1,1-.358.358A.354.354,0,0,1,19.4,6.916Zm-3.85,10.228L16.806,5.439H19v.739a1.141,1.141,0,1,0,.761,0V5.439h6.177v.739a1.141,1.141,0,1,0,.761,0V5.439h2.283l1.253,11.705Z" transform="translate(-14.696)" stroke="#000" stroke-width="0.5"/></g></svg>