<svg xmlns="http://www.w3.org/2000/svg" width="135.993" height="22" viewBox="0 0 135.993 22">
  <g id="Group_46" data-name="Group 46" transform="translate(-32.455 2)">
    <path id="star" d="M7.8,10.441l2.409,4.882,5.388.783-3.9,3.8.92,5.366L7.8,22.738,2.978,25.271l.92-5.366L0,16.106l5.387-.783Z" transform="translate(32.455 -7.953)"/>
    <path id="star-2" data-name="star" d="M7.8,10.441l2.409,4.882,5.388.783-3.9,3.8.92,5.366L7.8,22.738,2.978,25.271l.92-5.366L0,16.106l5.387-.783Z" transform="translate(54.222 -7.953)"/>
    <path id="star-3" data-name="star" d="M7.8,10.441l2.409,4.882,5.388.783-3.9,3.8.92,5.366L7.8,22.738,2.978,25.271l.92-5.366L0,16.106l5.387-.783Z" transform="translate(75.118 -7.953)"/>
    <path id="star-4" data-name="star" d="M7.8,10.441l2.409,4.882,5.388.783-3.9,3.8.92,5.366L7.8,22.738,2.978,25.271l.92-5.366L0,16.106l5.387-.783Z" transform="translate(96.014 -7.953)"/>
    <path id="star-5" data-name="star" d="M7.8,10.441l2.409,4.882,5.388.783-3.9,3.8.92,5.366L7.8,22.738,2.978,25.271l.92-5.366L0,16.106l5.387-.783Z" transform="translate(116.91 -7.953)" fill="#cfcfcf"/>
    <text id="_4.5" data-name="4.5" transform="translate(143.448 16)" fill="#0e1116" font-size="17" font-family="SegoeUI-Bold, Segoe UI" font-weight="700"><tspan x="0" y="0">4.5</tspan></text>
  </g>
</svg>
