<svg xmlns="http://www.w3.org/2000/svg" width="18.034" height="16.077" viewBox="0 0 18.034 16.077"><path d="M8.867,15.777a1.04,1.04,0,0,1-.686-.258c-.716-.626-1.407-1.215-2.016-1.734l0,0a37.5,37.5,0,0,1-4.4-4.133A6.6,6.6,0,0,1,0,5.33,5.543,5.543,0,0,1,1.407,1.544,4.769,4.769,0,0,1,4.954,0,4.461,4.461,0,0,1,7.74.962,5.7,5.7,0,0,1,8.867,2.138,5.7,5.7,0,0,1,9.994.962,4.461,4.461,0,0,1,12.78,0a4.769,4.769,0,0,1,3.547,1.544A5.543,5.543,0,0,1,17.734,5.33a6.6,6.6,0,0,1-1.759,4.32,37.5,37.5,0,0,1-4.4,4.132c-.61.52-1.3,1.11-2.02,1.738a1.041,1.041,0,0,1-.685.257ZM4.954,1.039A3.741,3.741,0,0,0,2.17,2.248,4.509,4.509,0,0,0,1.039,5.33a5.554,5.554,0,0,0,1.52,3.658,36.9,36.9,0,0,0,4.277,4l0,0c.612.521,1.305,1.112,2.027,1.743.726-.632,1.42-1.224,2.033-1.746a36.913,36.913,0,0,0,4.276-4A5.554,5.554,0,0,0,16.7,5.33a4.509,4.509,0,0,0-1.132-3.081A3.741,3.741,0,0,0,12.78,1.039a3.445,3.445,0,0,0-2.151.745,5.041,5.041,0,0,0-1.2,1.387.656.656,0,0,1-1.126,0A5.036,5.036,0,0,0,7.1,1.784a3.445,3.445,0,0,0-2.151-.745Zm0,0" transform="translate(0.15 0.15)" stroke="#000" stroke-width="0.3"/></svg>