<svg xmlns="http://www.w3.org/2000/svg" width="39.36" height="39.366" viewBox="0 0 39.36 39.366"><path d="M39.709,11.574A14.384,14.384,0,0,0,38.794,6.8a10.084,10.084,0,0,0-5.76-5.76A14.422,14.422,0,0,0,28.258.123C26.15.023,25.481,0,20.136,0s-6.014.023-8.114.115a14.39,14.39,0,0,0-4.776.915A9.605,9.605,0,0,0,3.755,3.307,9.692,9.692,0,0,0,1.487,6.791a14.423,14.423,0,0,0-.915,4.775c-.1,2.107-.123,2.776-.123,8.121S.472,25.7.564,27.8a14.383,14.383,0,0,0,.915,4.776,10.083,10.083,0,0,0,5.76,5.76,14.424,14.424,0,0,0,4.776.915c2.1.093,2.769.115,8.114.115s6.014-.023,8.114-.115a14.382,14.382,0,0,0,4.776-.915,10.069,10.069,0,0,0,5.76-5.76,14.432,14.432,0,0,0,.915-4.776c.092-2.1.115-2.768.115-8.113s-.008-6.014-.1-8.113ZM36.164,27.647a10.79,10.79,0,0,1-.677,3.653,6.53,6.53,0,0,1-3.738,3.738,10.829,10.829,0,0,1-3.653.677c-2.076.093-2.7.115-7.952.115s-5.883-.023-7.952-.115a10.785,10.785,0,0,1-3.653-.677,6.058,6.058,0,0,1-2.261-1.469,6.12,6.12,0,0,1-1.469-2.261,10.83,10.83,0,0,1-.677-3.653c-.093-2.076-.115-2.7-.115-7.952s.023-5.883.115-7.952A10.784,10.784,0,0,1,4.809,8.1,5.983,5.983,0,0,1,6.286,5.837,6.111,6.111,0,0,1,8.547,4.368,10.836,10.836,0,0,1,12.2,3.691c2.076-.092,2.7-.115,7.952-.115s5.883.023,7.952.115a10.791,10.791,0,0,1,3.653.677,6.053,6.053,0,0,1,2.261,1.469A6.119,6.119,0,0,1,35.487,8.1a10.834,10.834,0,0,1,.677,3.653c.092,2.076.115,2.7.115,7.952s-.023,5.868-.115,7.944Zm0,0" transform="translate(-0.449 0)"/><path d="M135.062,124.5a10.113,10.113,0,1,0,10.113,10.113A10.115,10.115,0,0,0,135.062,124.5Zm0,16.673a6.56,6.56,0,1,1,6.56-6.56A6.561,6.561,0,0,1,135.062,141.173Zm0,0" transform="translate(-115.374 -114.926)"/><path d="M367.172,90.963a2.361,2.361,0,1,1-2.361-2.361A2.361,2.361,0,0,1,367.172,90.963Zm0,0" transform="translate(-334.61 -81.788)"/></svg>