<svg xmlns="http://www.w3.org/2000/svg" width="15.944" height="12.145" viewBox="0 0 15.944 12.145"><g transform="translate(0 -61)"><g transform="translate(0.801 61)"><path d="M39.462,61H26.321a1.385,1.385,0,0,0-.6.14l7.14,7.14,1.6-1.538h0l5.6-5.6A1.385,1.385,0,0,0,39.462,61Z" transform="translate(-25.721 -61)"/></g><g transform="translate(10.532 61.801)"><path d="M343.484,86.728,338.213,92l5.271,5.271a1.385,1.385,0,0,0,.14-.6V87.328A1.385,1.385,0,0,0,343.484,86.728Z" transform="translate(-338.213 -86.728)"/></g><g transform="translate(0 61.801)"><path d="M.14,86.721a1.385,1.385,0,0,0-.14.6v9.342a1.385,1.385,0,0,0,.14.6l5.271-5.271Z" transform="translate(0 -86.721)"/></g><g transform="translate(0.801 67.733)"><path d="M34.785,277.211l-1.6,1.538a.467.467,0,0,1-.66,0l-1.538-1.538-5.272,5.271a1.385,1.385,0,0,0,.6.141H39.456a1.385,1.385,0,0,0,.6-.14Z" transform="translate(-25.714 -277.211)"/></g></g></svg>