<svg xmlns="http://www.w3.org/2000/svg" width="16.324" height="16.336" viewBox="0 0 16.324 16.336">
  <g id="phone_3_" data-name="phone (3)" transform="translate(0.056 0.022)">
    <g id="Group_421" data-name="Group 421" transform="translate(0 0.029)">
      <path id="Path_389" data-name="Path 389" d="M15.094,11.231c-.076-.058-.153-.116-.226-.175-.4-.324-.832-.62-1.245-.906l-.254-.176c-1.368-.955-2.553-.751-3.391.51a.537.537,0,0,1-.473.3,1.145,1.145,0,0,1-.455-.117A6.491,6.491,0,0,1,5.6,7.337c-.316-.706-.143-1,.261-1.276A1.919,1.919,0,0,0,6.9,4.363C6.843,3.335,4.748.5,3.787.147A1.945,1.945,0,0,0,2.472.141,3.535,3.535,0,0,0,.267,1.961,3.353,3.353,0,0,0,.31,4.677,20.471,20.471,0,0,0,11.645,16a4,4,0,0,0,.716.213c.055.012.1.023.141.033l.16.019A4.144,4.144,0,0,0,16.1,13.674,2.005,2.005,0,0,0,15.094,11.231Zm-.008,2.08a3.11,3.11,0,0,1-2.377,1.871l-.113-.025A3,3,0,0,1,12.07,15,19.429,19.429,0,0,1,1.311,4.266a2.3,2.3,0,0,1-.06-1.855A2.491,2.491,0,0,1,2.815,1.167a1,1,0,0,1,.317-.056.808.808,0,0,1,.284.052,8.6,8.6,0,0,1,2.4,3.259c.015.269-.116.443-.561.742A1.905,1.905,0,0,0,4.613,7.78,7.625,7.625,0,0,0,8.6,11.655a2.2,2.2,0,0,0,.9.213,1.6,1.6,0,0,0,1.375-.784c.413-.622.771-.622.888-.622a1.837,1.837,0,0,1,.983.4l.257.179c.4.275.809.561,1.185.862.081.064.165.128.248.192C15.082,12.581,15.274,12.783,15.085,13.31Z" transform="translate(0 -0.029)" stroke="#231f20" stroke-width="0.1"/>
    </g>
  </g>
</svg>
