<svg xmlns="http://www.w3.org/2000/svg" width="20.964" height="20.964" viewBox="0 0 20.964 20.964"><g transform="translate(0.1 0.1)"><g transform="translate(0 0)"><g transform="translate(0 0)"><path d="M17.947.937a.865.865,0,0,0-.865.865v.721A10.222,10.222,0,0,0,10.328,0,10.358,10.358,0,0,0,0,10.365a.865.865,0,1,0,1.73,0,8.626,8.626,0,0,1,8.6-8.634A8.51,8.51,0,0,1,15.9,3.789h-.793a.865.865,0,0,0,0,1.73h2.839a.865.865,0,0,0,.865-.865V1.8A.865.865,0,0,0,17.947.937Z" transform="translate(0 0)" fill="#fff" stroke="#fff" stroke-width="0.2"/></g></g><g transform="translate(2.043 9.534)"><path d="M55.632,176.32a.865.865,0,0,0-.865.865,8.626,8.626,0,0,1-8.6,8.634,8.509,8.509,0,0,1-5.519-2.011h.831a.865.865,0,1,0,0-1.73h-2.84l-.022,0a.843.843,0,0,0-.1.01c-.024,0-.048.006-.072.011a.865.865,0,0,0-.085.026c-.026.009-.052.017-.077.028s-.046.025-.069.038-.054.031-.08.049c-.006,0-.014.007-.02.013s-.026.025-.04.037a.679.679,0,0,0-.12.127c-.017.022-.033.044-.048.067s-.028.049-.041.074a.794.794,0,0,0-.034.076c-.01.027-.018.054-.025.081s-.014.053-.019.08-.007.061-.01.093-.005.035-.005.053v2.852a.865.865,0,0,0,1.73,0v-.688a10.226,10.226,0,0,0,6.663,2.443A10.358,10.358,0,0,0,56.5,177.185.865.865,0,0,0,55.632,176.32Z" transform="translate(-37.776 -176.32)" fill="#fff" stroke="#fff" stroke-width="0.2"/></g></g></svg>