<svg xmlns="http://www.w3.org/2000/svg" width="16.17" height="16.172" viewBox="0 0 16.17 16.172">
  <path id="return" d="M3.759,5.4H.285V1.927H1.548v1.4A8.086,8.086,0,0,1,16.171,8.086H14.908A6.823,6.823,0,0,0,2.52,4.138H3.759ZM12.412,12h1.26A6.822,6.822,0,0,1,1.264,8.087H0a8.086,8.086,0,0,0,14.623,4.759v1.367h1.263V10.739H12.412ZM10.233,4.864a1.581,1.581,0,0,1,1.579,1.579V9.791a1.581,1.581,0,0,1-1.579,1.579h-4.3A1.581,1.581,0,0,1,4.359,9.791V6.443A1.581,1.581,0,0,1,5.938,4.864Zm0,1.263h-4.3a.316.316,0,0,0-.316.316V9.791a.316.316,0,0,0,.316.316h4.3a.316.316,0,0,0,.316-.316V6.443A.316.316,0,0,0,10.233,6.127ZM7.043,8.465H9.128V7.2H7.043Zm0,0" transform="translate(0 0)"/>
</svg>
