<svg xmlns="http://www.w3.org/2000/svg" width="23.528" height="24.448" viewBox="0 0 23.528 24.448"><g transform="translate(-10.123 0.272)"><g transform="translate(10.359 -0.002)"><g transform="translate(0 0)"><path d="M32.3,12.323a.7.7,0,0,1,0-.622l.9-1.833a2.086,2.086,0,0,0-.9-2.77l-1.8-.956a.7.7,0,0,1-.366-.5l-.353-2.01a2.086,2.086,0,0,0-2.356-1.712L25.4,2.2a.7.7,0,0,1-.592-.192L23.343.591a2.086,2.086,0,0,0-2.913,0L18.964,2.01a.7.7,0,0,1-.592.192l-2.02-.286A2.086,2.086,0,0,0,14,3.628l-.353,2.01a.7.7,0,0,1-.366.5l-1.8.956a2.086,2.086,0,0,0-.9,2.77l.9,1.833a.7.7,0,0,1,0,.622l-.9,1.833a2.086,2.086,0,0,0,.9,2.77l1.8.956a.7.7,0,0,1,.366.5L14,20.4a2.085,2.085,0,0,0,2.056,1.733,2.143,2.143,0,0,0,.3-.021l2.02-.286a.7.7,0,0,1,.592.192l1.467,1.419a2.086,2.086,0,0,0,2.912,0l1.467-1.419a.7.7,0,0,1,.592-.192l2.02.286A2.086,2.086,0,0,0,29.778,20.4l.353-2.01a.7.7,0,0,1,.366-.5l1.8-.956a2.086,2.086,0,0,0,.9-2.77ZM31.65,15.7l-1.8.956a2.081,2.081,0,0,0-1.081,1.488l-.353,2.01a.706.706,0,0,1-.8.579l-2.02-.286a2.081,2.081,0,0,0-1.75.568L22.38,22.438a.706.706,0,0,1-.985,0l-1.467-1.419a2.079,2.079,0,0,0-1.451-.59,2.127,2.127,0,0,0-.3.021l-2.02.286a.706.706,0,0,1-.8-.579l-.353-2.01a2.081,2.081,0,0,0-1.081-1.488l-1.8-.956a.706.706,0,0,1-.3-.937l.9-1.833a2.081,2.081,0,0,0,0-1.84l-.9-1.833a.706.706,0,0,1,.3-.937l1.8-.956a2.081,2.081,0,0,0,1.081-1.488l.353-2.01a.706.706,0,0,1,.8-.579l2.02.286a2.081,2.081,0,0,0,1.75-.568l1.467-1.419a.706.706,0,0,1,.985,0l1.467,1.419a2.081,2.081,0,0,0,1.75.568l2.02-.286a.706.706,0,0,1,.8.579l.353,2.01a2.081,2.081,0,0,0,1.081,1.488l1.8.956a.706.706,0,0,1,.3.937l-.9,1.833a2.081,2.081,0,0,0,0,1.84l.9,1.833A.706.706,0,0,1,31.65,15.7Z" transform="translate(-10.359 0.002)" fill="#fff" stroke="#fff" stroke-width="0.3"/></g></g><g transform="translate(16.621 6.746)"><path d="M154.12,143.994a.693.693,0,0,0-.98,0l-9.146,9.146a.693.693,0,1,0,.98.98l9.146-9.146A.693.693,0,0,0,154.12,143.994Z" transform="translate(-143.792 -143.792)" fill="#fff" stroke="#fff" stroke-width="0.3"/></g><g transform="translate(16.574 5.776)"><g transform="translate(0)"><path d="M145.343,123.116a2.541,2.541,0,1,0,2.541,2.541A2.544,2.544,0,0,0,145.343,123.116Zm0,3.7a1.155,1.155,0,1,1,1.155-1.155A1.156,1.156,0,0,1,145.343,126.812Z" transform="translate(-142.802 -123.116)" fill="#fff" stroke="#fff" stroke-width="0.3"/></g></g><g transform="translate(22.118 13.167)"><path d="M263.463,280.61A2.541,2.541,0,1,0,266,283.151,2.544,2.544,0,0,0,263.463,280.61Zm0,3.7a1.155,1.155,0,1,1,1.155-1.155A1.156,1.156,0,0,1,263.463,284.306Z" transform="translate(-260.922 -280.61)" fill="#fff" stroke="#fff" stroke-width="0.3"/></g></g></svg>