<svg xmlns="http://www.w3.org/2000/svg" width="13.717" height="7.769" viewBox="0 0 13.717 7.769">
  <g id="width" transform="translate(0 -111)">
    <g id="Group_350" data-name="Group 350" transform="translate(0 111)">
      <g id="Group_349" data-name="Group 349" transform="translate(0 0)">
        <path id="Path_328" data-name="Path 328" d="M.536,111a.536.536,0,0,0-.536.536v6.7a.536.536,0,0,0,1.072,0v-6.7A.536.536,0,0,0,.536,111Z" transform="translate(0 -111)"/>
      </g>
    </g>
    <g id="Group_352" data-name="Group 352" transform="translate(12.645 111)">
      <g id="Group_351" data-name="Group 351" transform="translate(0 0)">
        <path id="Path_329" data-name="Path 329" d="M472.536,111a.536.536,0,0,0-.536.536v6.7a.536.536,0,0,0,1.072,0v-6.7A.536.536,0,0,0,472.536,111Z" transform="translate(-472 -111)"/>
      </g>
    </g>
    <g id="Group_354" data-name="Group 354" transform="translate(1.072 111.911)">
      <g id="Group_353" data-name="Group 353" transform="translate(0 0)">
        <path id="Path_330" data-name="Path 330" d="M48.332,147.438h-6.97l1.534-1.522a.536.536,0,0,0-.755-.761l-1.665,1.652a1.6,1.6,0,0,0,0,2.28l1.665,1.652a.536.536,0,0,0,.755-.761l-1.48-1.468h6.916a.536.536,0,1,0,0-1.072Z" transform="translate(-40 -145)"/>
      </g>
    </g>
    <g id="Group_356" data-name="Group 356" transform="translate(9.591 111.911)">
      <g id="Group_355" data-name="Group 355" transform="translate(0 0)">
        <path id="Path_331" data-name="Path 331" d="M360.578,146.807l-1.665-1.652a.536.536,0,1,0-.755.761l1.665,1.652a.532.532,0,0,1,0,.758l-1.665,1.652a.536.536,0,0,0,.755.761l1.665-1.652a1.6,1.6,0,0,0,0-2.28Z" transform="translate(-358 -145)"/>
      </g>
    </g>
  </g>
</svg>
